<?xml version="1.0" encoding="UTF-8" standalone="no"?>
<svg
   xmlns:dc="http://purl.org/dc/elements/1.1/"
   xmlns:cc="http://creativecommons.org/ns#"
   xmlns:rdf="http://www.w3.org/1999/02/22-rdf-syntax-ns#"
   xmlns:svg="http://www.w3.org/2000/svg"
   xmlns="http://www.w3.org/2000/svg"
   xmlns:sodipodi="http://sodipodi.sourceforge.net/DTD/sodipodi-0.dtd"
   xmlns:inkscape="http://www.inkscape.org/namespaces/inkscape"
   width="48"
   height="48"
   viewBox="0 0 48 48"
   id="svg2"
   version="1.1"
   inkscape:version="0.91 r13725"
   sodipodi:docname="favicon.svg"
   inkscape:export-filename="/home/koyi/Descargas/Icons/age.png"
   inkscape:export-xdpi="270"
   inkscape:export-ydpi="270">
  <metadata
     id="metadata10">
    <rdf:RDF>
      <cc:Work
         rdf:about="">
        <dc:format>image/svg+xml</dc:format>
        <dc:type
           rdf:resource="http://purl.org/dc/dcmitype/StillImage" />
        <dc:title />
      </cc:Work>
    </rdf:RDF>
  </metadata>
  <defs
     id="defs8" />
  <sodipodi:namedview
     pagecolor="#ffffff"
     bordercolor="#666666"
     borderopacity="1"
     objecttolerance="10"
     gridtolerance="10"
     guidetolerance="10"
     inkscape:pageopacity="0"
     inkscape:pageshadow="2"
     inkscape:window-width="1366"
     inkscape:window-height="744"
     id="namedview6"
     showgrid="false"
     inkscape:zoom="5.2641011"
     inkscape:cx="-4.0148259"
     inkscape:cy="10.396853"
     inkscape:window-x="0"
     inkscape:window-y="24"
     inkscape:window-maximized="1"
     inkscape:current-layer="svg2" />
  <circle
     style="color:#000000;clip-rule:nonzero;display:inline;overflow:visible;visibility:visible;opacity:1;isolation:auto;mix-blend-mode:normal;color-interpolation:sRGB;color-interpolation-filters:linearRGB;solid-color:#000000;solid-opacity:1;fill:#ff0c17;fill-opacity:1;fill-rule:nonzero;stroke:none;stroke-width:20;stroke-linecap:butt;stroke-linejoin:miter;stroke-miterlimit:4;stroke-dasharray:none;stroke-dashoffset:0;stroke-opacity:1;marker:none;color-rendering:auto;image-rendering:auto;shape-rendering:auto;text-rendering:auto;enable-background:accumulate"
     id="path4138"
     cx="24"
     cy="24"
     r="22.036051" />
  <g
     id="g4134"
     transform="matrix(0.64703812,0,0,0.64703812,8.471085,8.4710851)"
     style="fill:#ffffff;fill-opacity:1">
    <path
       inkscape:connector-curvature="0"
       id="path4348"
       d="m 28.79689,21.753044 c 0.03427,-1.59e-4 0.0605,0.0016 0.07877,0.0055 0.547184,0.115136 0.882152,0.601532 0.830455,1.206111 l -0.04043,0.471818 0.851476,0.02833 c 1.379708,0.04613 2.015237,0.652562 1.728131,1.648719 -0.167248,0.580293 -0.759044,1.15044 -1.503135,1.448215 -0.655059,0.262146 -2.151985,0.283817 -4.490458,0.06507 -2.041971,-0.191016 -2.407695,-0.144592 -1.68655,0.214002 0.788591,0.392134 1.182732,0.798556 1.182732,1.219609 0,0.838626 -1.430655,1.723271 -3.65908,2.262617 -0.345579,0.08364 -0.628327,0.20715 -0.628327,0.274638 0,0.123882 6.361622,3.75586 7.797954,4.45198 0.426561,0.206732 1.02532,0.436608 1.330574,0.510771 0.494576,0.120158 0.45046,0.130508 -0.405872,0.09605 -0.930045,-0.03743 -1.12077,-0.119149 -5.923367,-2.544557 -2.729257,-1.378329 -5.099366,-2.506051 -5.267089,-2.506051 -0.167722,0 -0.369664,0.07966 -0.448607,0.177043 -0.156214,0.192685 -1.077802,5.568784 -1.07624,6.278185 5.31e-4,0.239756 0.307639,1.418867 0.682612,2.620244 0.496195,1.589764 0.818127,2.36298 1.182732,2.840665 0.275532,0.36098 0.501046,0.695594 0.501046,0.743582 0,0.221945 -0.305752,0.04026 -0.782406,-0.465182 -0.421278,-0.446729 -0.679646,-1.014324 -1.3479,-2.961495 -0.454657,-1.324787 -0.826527,-2.630714 -0.826527,-2.902187 0,-0.271471 0.165935,-1.663619 0.368911,-3.093615 0.483098,-3.403504 0.48545,-3.33412 -0.110189,-3.449913 -0.264267,-0.05138 -0.929442,-0.228178 -1.478185,-0.393038 L 14.66022,29.700288 14.253426,29.99064 c -0.388043,0.276846 -0.410202,0.357908 -0.480717,1.762688 l -0.07393,1.472782 -2.357843,3.657941 c -2.4201764,3.75472 -2.5780328,3.933777 -3.6297396,4.117093 -0.5618317,0.09792 -0.5751934,0.11278 0.4955014,-0.555696 0.3231836,-0.201774 1.113949,-1.339054 2.6586082,-3.82414 l 2.198454,-3.536823 -0.09009,-0.843611 c -0.131332,-1.231417 -0.306106,-1.248923 -0.70248,-0.06991 -0.332713,0.989671 -0.394204,1.067733 -1.602926,2.033125 -1.4731049,1.176557 -1.4283912,1.126733 -1.6548962,1.854751 -0.1419449,0.456229 -0.1872693,0.50449 -0.2321566,0.247861 -0.030656,-0.175274 -0.1252436,-0.31868 -0.2102123,-0.31868 -0.084977,0 -0.8510422,0.541756 -1.7024903,1.203897 -1.4660293,1.140083 -1.5861026,1.203896 -2.262669,1.203896 -0.3929389,0 -0.8196464,0.03859 -0.9482654,0.08586 -0.147757,0.05432 -0.2337747,0.0097 -0.2337747,-0.121719 0,-0.147699 0.2350932,-0.231204 0.8131293,-0.288357 0.901926,-0.08918 0.9025508,-0.08939 3.1141444,-1.936636 1.2969202,-1.083259 1.5121755,-1.326115 1.5934559,-1.797429 0.1691563,-0.980891 0.1046745,-1.664378 -0.1984317,-2.102836 -0.447248,-0.64697 -0.3911218,-1.46167 0.1418357,-2.059017 0.3576405,-0.400843 0.4386171,-0.622159 0.4435259,-1.211863 0.015448,-1.855225 1.948787,-5.20078 3.176054,-5.495872 0.485362,-0.116705 0.991298,0.08946 1.677771,0.683608 l 0.575888,0.498379 6.842066,-1.490929 c 4.358767,-0.949823 6.679573,-1.403639 7.193651,-1.405945 z m -17.533324,8.852839 c -0.207327,0 -0.299383,0.146416 -0.378615,0.601948 -0.07724,0.444107 -0.260217,0.744403 -0.697856,1.14525 -0.4715801,0.431937 -0.608199,0.671474 -0.666674,1.168488 -0.096885,0.823507 0.1177214,0.813341 1.087097,-0.05091 0.685394,-0.611063 0.76914,-0.755241 0.938795,-1.616628 0.19999,-1.015411 0.147229,-1.248158 -0.282747,-1.248158 z"
       style="color:#000000;clip-rule:nonzero;display:inline;overflow:visible;visibility:visible;opacity:1;isolation:auto;mix-blend-mode:normal;color-interpolation:sRGB;color-interpolation-filters:linearRGB;solid-color:#000000;solid-opacity:1;fill:#ffffff;fill-opacity:1;fill-rule:nonzero;stroke-width:1;stroke-linecap:butt;stroke-linejoin:miter;stroke-miterlimit:4;stroke-dasharray:none;stroke-dashoffset:0;stroke-opacity:1;color-rendering:auto;image-rendering:auto;shape-rendering:auto;text-rendering:auto;enable-background:accumulate" />
    <path
       inkscape:connector-curvature="0"
       id="path4288"
       d="m 33.100417,3.6912952 c -3.167085,0.148534 -6.003943,2.3157273 -6.699691,5.4429832 -0.296802,1.3340706 -0.210176,3.0482656 0.214258,4.2522026 0.397706,1.128108 1.431505,2.543443 2.459849,3.366326 0.765413,0.612482 0.898596,0.806634 1.452424,2.1158 0.335524,0.793145 0.918342,2.104171 1.29379,2.913088 0.702409,1.513392 0.852681,2.074472 1.143397,4.258382 0.09301,0.698707 0.2207,1.215588 0.284304,1.149578 0.06366,-0.06601 0.250573,-0.896875 0.416157,-1.845917 0.287108,-1.645519 0.371806,-1.868469 1.810894,-4.81669 1.471185,-3.013976 1.530322,-3.110399 2.395983,-3.811324 1.020455,-0.826252 1.958019,-2.117388 2.416587,-3.329243 0.394087,-1.041436 0.529915,-2.84765 0.296665,-3.9699585 C 40.051184,6.8477621 37.889465,4.5924836 35.323345,3.924095 34.579654,3.7303878 33.831282,3.6570181 33.100417,3.6912952 Z m 0.140091,3.2344752 c 1.55338,-0.096499 2.985073,0.6543065 3.798963,2.0972586 0.395881,0.701787 0.444999,0.9199037 0.444999,1.940685 0,1.006492 -0.05304,1.247946 -0.426456,1.922143 -0.520074,0.938967 -1.326625,1.654666 -2.202328,1.953047 -0.810516,0.276172 -2.063371,0.271124 -2.863644,-0.01236 C 31.660104,14.708959 31.121351,14.352009 30.79302,14.033376 28.678569,11.981369 29.142772,8.3937685 31.664474,7.3089631 32.191161,7.0823875 32.722715,6.9579369 33.240508,6.9257704 Z M 7.5356994,10.524897 C 7.4192801,10.64132 2.4717883,40.900014 2.4717883,41.495513 c 0,0.224996 0.1346511,0.300418 0.6819181,0.381132 1.2153413,0.179249 9.7047166,1.643363 10.9642546,1.891241 0.67223,0.132297 1.642942,0.323747 2.157003,0.424397 0.514073,0.100639 1.19376,0.150255 1.510108,0.11125 0.676756,-0.08344 9.1415,-2.857336 11.194994,-3.669173 1.984539,-0.784572 2.295217,-0.80527 4.412895,-0.288425 2.109683,0.514896 12.068346,2.525516 12.132373,2.449549 0.11914,-0.141446 -3.49894,-26.13812 -3.737158,-26.852326 -0.04205,-0.126053 -0.228522,0.02979 -0.512983,0.430577 -0.245655,0.346116 -0.67278,0.867526 -0.949742,1.157818 l -0.502683,0.527405 0.951801,7.597927 c 1.076001,8.584553 1.579956,13.221231 1.468905,13.51063 -0.0431,0.112305 -0.281774,0.195717 -0.556247,0.195717 -0.50327,0 -7.23808,-1.14364 -8.904078,-1.512169 -1.371073,-0.303292 -2.127016,-0.265485 -3.238595,0.160694 -2.559855,0.981442 -11.63044,3.941115 -12.078808,3.941115 -0.569461,0 -8.7333418,-1.578832 -10.3771047,-2.006611 C 6.5045827,39.794263 5.9641383,39.606674 5.8875591,39.530106 5.7977843,39.440342 6.0080783,37.535353 6.4788294,34.165409 6.8803745,31.290858 7.5050921,26.804025 7.8673876,24.19416 8.8094699,17.407557 9.3876405,13.918158 9.606176,13.699627 c 0.2159723,-0.215971 0.614311,-0.13927 5.735529,1.104254 4.27642,1.038392 4.114663,1.038082 6.380363,0.0062 2.71046,-1.234463 2.535695,-1.061219 2.311516,-2.315637 -0.222934,-1.247492 0.01986,-1.244247 -2.871884,-0.02267 l -2.029273,0.857033 -5.770551,-1.429762 C 10.188228,11.112977 7.5663944,10.494212 7.5356994,10.524897 Z"
       style="fill:#ffffff;fill-opacity:1" />
  </g>
</svg>
